<?xml version="1.0" encoding="utf-8"?>
<!-- Generator: Adobe Illustrator 24.1.3, SVG Export Plug-In . SVG Version: 6.00 Build 0)  -->
<svg version="1.1" id="Layer_1" xmlns="http://www.w3.org/2000/svg" xmlns:xlink="http://www.w3.org/1999/xlink" x="0px" y="0px"
	 viewBox="0 0 255 255" style="enable-background:new 0 0 255 255;" xml:space="preserve">
<style type="text/css">
	.st0{fill:#43B883;}
	.st1{fill:#364A5E;}
</style>
<path class="st0" d="M20.8,64.4c0-3.6,3.2-7,7.3-7c3.8,0,7.1,3.3,7.1,7c0,4.1-3.3,7.3-7.1,7.3C24,71.7,20.8,68.5,20.8,64.4z
	 M22.9,85.1h10.6v66.6H22.9V85.1z"/>
<path class="st1" d="M45.8,104.6c0-25.6,21.9-47.2,48.6-47.2c18.1,0,33.2,10,41.6,24.4h-10.7c-7-9-18.4-14.9-30.9-14.9
	c-21.5,0-38.7,17.2-38.7,37.7c0,21.5,17.2,38.7,38.7,38.7c13.7,0,25.7-7,32.6-17.7v-21h9.5v47.1H127v-11.3
	c-8.6,7.8-20.1,12.5-32.6,12.5C67.7,152.9,45.8,131.2,45.8,104.6z"/>
<path class="st1" d="M239.6,104.5c0,26.6-21.8,48.2-48.5,48.2c-26.7,0-48.5-21.6-48.5-48.2c0-25.6,21.8-47.2,48.5-47.2
	C217.8,57.3,239.6,79,239.6,104.5z M229.7,104.5c0-20.5-17.1-37.7-38.6-37.7s-38.6,17.2-38.6,37.7c0,21.5,17.1,38.7,38.6,38.7
	S229.7,126,229.7,104.5z"/>
<g>
	<path class="st0" d="M31.6,168.1c-0.4-1.3-1.7-2.3-3.2-2.3c-2.1,0-3.5,1.5-3.5,3.2c0,1.7,1.2,2.4,3.5,3.2c3.6,1.1,6.3,2.6,6.3,5.9
		c0,3.4-2.8,5.6-6.3,5.6c-3.2,0-5.9-2.2-6.2-5.2h2.1c0.4,1.9,2.1,3.2,4.2,3.2c2.4,0,4.2-1.4,4.2-3.6c0-1.8-1.2-2.8-4.2-3.7
		c-3.6-1.1-5.6-2.5-5.6-5.4c0-2.9,2.2-5.2,5.6-5.2c2.7,0,4.9,1.8,5.3,4.3H31.6z"/>
	<path class="st0" d="M65.1,177.8l-6.7-13.7h2.1l5.6,11.5l5.6-11.5h2.1l-9.5,19.4h-2.1L65.1,177.8z"/>
	<path class="st0" d="M107,168.1c-0.4-1.3-1.7-2.3-3.2-2.3c-2.1,0-3.5,1.5-3.5,3.2c0,1.7,1.2,2.4,3.5,3.2c3.6,1.1,6.3,2.6,6.3,5.9
		c0,3.4-2.8,5.6-6.3,5.6c-3.2,0-5.9-2.2-6.2-5.2h2.1c0.4,1.9,2.1,3.2,4.2,3.2c2.4,0,4.2-1.4,4.2-3.6c0-1.8-1.2-2.8-4.2-3.7
		c-3.6-1.1-5.6-2.5-5.6-5.4c0-2.9,2.2-5.2,5.6-5.2c2.7,0,4.9,1.8,5.3,4.3H107z"/>
	<path class="st0" d="M140.3,166h-6.6v-1.9h15.1v1.9h-6.5v17.5h-2V166z"/>
	<path class="st0" d="M174.1,164.1h11.2v1.9h-9.3v5.4h8.7v1.9h-8.7v8.3h9.3v1.9h-11.2V164.1z"/>
	<path class="st0" d="M229.6,168.6l-6.5,14.8h-2.4l-6.5-14.8v14.8h-2v-19.4h2.3l7.4,17.2l7.4-17.2h2.3v19.4h-2V168.6z"/>
</g>
</svg>
